<?xml version="1.0" encoding="utf-8"?>
<!-- Generator: Adobe Illustrator 25.0.0, SVG Export Plug-In . SVG Version: 6.00 Build 0)  -->
<svg version="1.1" xmlns="http://www.w3.org/2000/svg" xmlns:xlink="http://www.w3.org/1999/xlink" x="0px" y="0px"
	 viewBox="0 0 192.6 50" style="enable-background:new 0 0 192.6 50;" xml:space="preserve">
<style type="text/css">
	.st0{display:none;}
	.st1{display:inline;fill:#7F7F7F;stroke:#000000;stroke-miterlimit:10;}
	.st2{fill:#FFFFFF;}
</style>
<g id="Layer_2" class="st0">
	<rect x="-137.8" y="-28.5" class="st1" width="459.8" height="114.3"/>
</g>
<g id="Layer_1">
	<path class="st2" d="M21.8,0H0.7v50.4L21.8,0z"/>
	<path class="st2" d="M36.6,0h21v50.4L36.6,0z"/>
	<path class="st2" d="M29.2,18.6l13.4,31.8h-8.8l-4-10.1H20L29.2,18.6z"/>
	<path class="st2" d="M92,32l2.5,7.1c0.1,0.2,0.2,0.3,0.4,0.3h4.8c0.3,0,0.3-0.1,0.3-0.4l-9.9-27.4c0-0.2-0.1-0.3-0.3-0.3h-6
		c-0.1,0-0.3,0.1-0.3,0.3c0,0,0,0,0,0c0,0.8-0.1,1.6-0.4,2.3l-8.8,25c0,0.3,0,0.4,0.3,0.4h4.3c0.2,0,0.4-0.1,0.5-0.3l2.4-7L92,32z
		 M83.2,27.4c1.3-3.9,3-8.9,3.7-11.7l0,0c0.9,3,2.9,8.9,3.8,11.7H83.2z"/>
	<path class="st2" d="M112.6,39.8c2.8,0,5.5-0.6,8.1-1.7c0.2,0,0.3-0.2,0.3-0.4c0,0,0,0,0,0c-0.1-0.8-0.2-1.9-0.2-2.7V9.3
		c0-0.2,0-0.2-0.2-0.2h-4.6c-0.2,0-0.3,0.1-0.3,0.3v8.7c-0.6-0.1-1.2-0.1-1.8-0.1c-7.5,0-12.1,5-12.1,11.1
		C101.7,36.3,106.4,39.8,112.6,39.8z M115.7,35.1c-0.8,0.2-1.6,0.4-2.5,0.3c-3.4,0-6.2-1.9-6.2-6.6c0-4.1,2.9-6.6,6.7-6.6
		c0.7,0,1.3,0.1,2,0.3L115.7,35.1z"/>
	<path class="st2" d="M135.8,17.9c-6.4,0-10.4,4.9-10.4,11c0,5.4,3.2,10.9,10.3,10.9c6,0,10.3-4.4,10.3-11.1
		C145.9,22.9,142.4,17.9,135.8,17.9z M135.5,22.2c3.6,0,5.2,3.1,5.2,6.7c0,4.4-2.3,6.6-4.9,6.6c-3.2,0-5.2-2.7-5.2-6.7
		S132.7,22.2,135.5,22.2z"/>
	<path class="st2" d="M150.8,9c-0.1,0-0.3,0.1-0.3,0.2c0,0,0,0,0,0.1v29.2c0,0.2,0.1,0.3,0.3,0.4c2.1,0.6,4.2,0.9,6.4,0.9
		c6.3,0,12.5-3.9,12.5-11.8c0-5.7-3.9-10.1-10.1-10.1c-1.3,0-2.6,0.2-3.9,0.6l-0.1-9.2c0-0.3-0.1-0.3-0.4-0.3L150.8,9z M164.4,28.5
		c0,4.7-3.2,6.9-6.7,6.9c-0.7,0-1.3,0-2-0.2V22.8c1-0.4,2-0.5,3-0.5C162,22.3,164.4,24.5,164.4,28.5z"/>
	<path class="st2" d="M187,30.1c1.5,0,2.9,0,4.4-0.2c0.2,0,0.3-0.1,0.3-0.3c0.2-0.9,0.2-1.8,0.2-2.6c0-4.1-2.4-9-8.8-9
		s-10,5.3-10,11.2c0,5.3,2.8,10.7,10.5,10.7c2.2,0.1,4.4-0.3,6.4-1.2c0.2-0.1,0.3-0.3,0.2-0.5v-3.6c0-0.2-0.1-0.2-0.2-0.2
		c-1.7,0.7-3.5,1-5.3,1c-4.3,0-6.3-2.4-6.4-5.4L187,30.1z M178.3,26.4c0.3-2.1,1.7-4.4,4.6-4.4c2.2-0.1,4,1.6,4.1,3.8
		c0,0,0,0.1,0,0.1v0.3c-0.8,0-1.6,0-2.4,0L178.3,26.4z"/>
</g>
</svg>
