<?xml version="1.0" encoding="utf-8"?>
<!-- Generator: Adobe Illustrator 25.0.0, SVG Export Plug-In . SVG Version: 6.00 Build 0)  -->
<svg version="1.1" xmlns="http://www.w3.org/2000/svg" xmlns:xlink="http://www.w3.org/1999/xlink" x="0px" y="0px"
	 viewBox="0 0 196.2 50" style="enable-background:new 0 0 196.2 50;" xml:space="preserve">
<style type="text/css">
	.st0{display:none;}
	.st1{display:inline;fill:#493E3E;stroke:#000000;stroke-miterlimit:10;}
	.st2{fill:#FFFFFF;}
	.st3{font-family:'OpenSauceOne-SemiBold';}
	.st4{font-size:5.54px;}
</style>
<g id="Layer_2" class="st0">
	<rect x="-122.8" y="-43" class="st1" width="524" height="163"/>
</g>
<g id="Layer_1">
	<path class="st2" d="M32.1,28.1c0.1-2,1.1-3.8,2.6-5.1c3.3-2.7,8-2.7,11.3,0c1.6,1.3,2.5,3.1,2.6,5.1c0.1,2.1-0.7,4.1-2.2,5.5
		c-3.4,3.2-8.8,3.2-12.2,0C32.8,32.2,32,30.2,32.1,28.1L32.1,28.1z"/>
	<path class="st2" d="M18.9,32.3c0.1,1.2,0.3,2.4,0.7,3.6c0.8,2.6,2.2,5,4.1,7.1c2,2.2,4.4,3.9,7.1,5.1c6,2.6,12.8,2.6,18.8,0
		c2.7-1.2,5.1-3,7.1-5.2c1.9-2,3.3-4.5,4.1-7.1c0.4-1.3,0.7-2.6,0.8-4c0.3-3.9-0.7-7.7-2.7-11c-1.3-2-2.9-3.8-4.8-5.2l0,0L34.8,0.8
		h-0.1c-1.4-1-3.3-1-4.8,0c-1.1,0.5-1.5,1.9-0.9,2.9c0.1,0.3,0.4,0.5,0.6,0.7l0,0l8,6.5H13.2l0,0c-1.9-0.1-3.7,1.2-4.3,3
		C8.5,15.6,9.9,17,12,17l0,0h12.4L2.2,34l-0.1,0.1C0,35.7-0.6,38.3,0.7,40s4.2,1.7,6.3,0L19,30.1C18.9,30.8,18.9,31.5,18.9,32.3
		L18.9,32.3z M49.9,36.7c-5.4,5.3-14,5.3-19.5,0c-1.2-1.2-2.1-2.6-2.7-4.2c-0.5-1.5-0.7-3.1-0.6-4.6c0.1-1.5,0.6-3,1.3-4.4
		c0.7-1.4,1.7-2.5,2.9-3.5c5.1-4,12.3-4,17.4,0c1.2,1,2.2,2.2,2.9,3.5c0.7,1.3,1.2,2.8,1.3,4.4c0.1,1.6-0.1,3.2-0.6,4.7
		C52,34.1,51.1,35.5,49.9,36.7L49.9,36.7z"/>
	<path class="st2" d="M163.8,28.1c0.2-2.1,1.8-3.4,4.2-3.4s4,1.3,4.2,3.4H163.8z M172.1,33.2c-0.7,1.6-2.4,2.6-4.1,2.4
		c-2.2,0.1-4.1-1.5-4.3-3.7c0-0.1,0-0.2,0-0.3h14.4v-0.7c0-6.2-3.6-9.7-10.2-9.7c-6.3,0-10.2,3.5-10.2,9s3.9,9.1,10.2,9.1
		c3.8,0,6.7-1.3,8.5-3.6L172.1,33.2L172.1,33.2z"/>
	<path class="st2" d="M99.8,28.1c0.2-2.1,1.8-3.4,4.2-3.4s4.1,1.3,4.2,3.4L99.8,28.1z M108,33.2c-0.7,1.6-2.4,2.6-4.1,2.4
		c-2.2,0.1-4.1-1.5-4.3-3.7c0-0.1,0-0.2,0-0.3h14.4v-0.7c0-6.2-3.6-9.7-10.2-9.7c-6.3,0-10.2,3.5-10.2,9s3.9,9.1,10.2,9.1
		c3.8,0,6.7-1.3,8.5-3.6L108,33.2z"/>
	<rect x="87.2" y="17.4" class="st2" width="5.2" height="21.3"/>
	<path class="st2" d="M115.4,23.1h5.2v1.3c1.7-1.9,4.1-3,6.6-3c2.9,0,5.1,1,6.2,2.7c0.9,1.4,1,3.1,1,5.3v9.3h-5.2v-8.2
		c0-3.4-0.7-5-3.7-5s-4.9,1.8-4.9,4.8v8.3h-5.2L115.4,23.1L115.4,23.1z"/>
	<path class="st2" d="M151.3,30.5c0.1,2.5-1.8,4.7-4.3,4.8c-0.2,0-0.5,0-0.7,0c-3,0-5-1.8-5-4.8s1.9-4.8,5-4.8
		S151.3,27.5,151.3,30.5z M151.3,23.8c-1.6-1.5-3.7-2.4-5.9-2.2c-5.7,0-9.7,3.5-9.7,8.9s3.9,8.8,9.6,8.8c2.2,0.2,4.4-0.6,6-2.1v1.6
		h5.2V16.1l-5.2,1.4L151.3,23.8z"/>
	<path class="st2" d="M75.3,25.7c3.1,0,5,1.9,5,4.8s-1.9,4.8-5,4.8c-2.5,0.2-4.7-1.7-4.9-4.2c0-0.2,0-0.4,0-0.6
		C70.4,27.5,72.3,25.7,75.3,25.7z M70.4,17.4l-5.2-1.4v22.7h5.2v-1.6c1.6,1.5,3.8,2.3,6,2.1c5.7,0,9.6-3.6,9.6-8.8s-3.9-8.9-9.7-8.9
		c-2.2-0.2-4.3,0.6-5.9,2.2L70.4,17.4L70.4,17.4z"/>
	<path class="st2" d="M179.4,38.7V23.1h5.2v1c1.6-1.9,3.2-2.8,5.1-2.8c0.4,0,0.9,0.1,1.5,0.1v4.4c-0.6-0.1-1.1-0.1-1.7-0.1
		c-3,0-4.9,2-4.9,5.4v7.6H179.4z"/>
	<text transform="matrix(1 0 0 1 193.6868 22.06)" class="st2 st3 st4">®</text>
</g>
</svg>
