<?xml version="1.0" encoding="utf-8"?>
<!-- Generator: Adobe Illustrator 25.0.0, SVG Export Plug-In . SVG Version: 6.00 Build 0)  -->
<svg version="1.1" xmlns="http://www.w3.org/2000/svg" xmlns:xlink="http://www.w3.org/1999/xlink" x="0px" y="0px"
	 viewBox="0 0 181.9 50" style="enable-background:new 0 0 181.9 50;" xml:space="preserve">
<style type="text/css">
	.st0{display:none;}
	.st1{display:inline;fill:#4C4C4C;stroke:#000000;stroke-miterlimit:10;}
	.st2{fill:none;}
	.st3{fill-rule:evenodd;clip-rule:evenodd;fill:#FFFFFF;}
</style>
<g id="Layer_2" class="st0">
	<rect x="-223.3" y="-88" class="st1" width="653" height="175"/>
</g>
<g id="Layer_1">
	<rect y="0.1" class="st2" width="179.4" height="50.4"/>
	<path class="st3" d="M176.5,27.3c0.3-0.4,0.8-0.4,1.2-0.1c0.1,0.1,0.1,0.1,0.2,0.2l0,0l1.3,1.8c0.3,0.4,0.3,0.8,0,1.2
		c-2.7,3.5-6.7,5.7-11.1,6.1c-3.8,0.2-6.9-1.2-8.6-3.9c-0.2-0.4-0.8-0.6-1.2-0.3c-0.1,0.1-0.2,0.1-0.2,0.2c-2,2.7-4.4,4.9-7,5
		c-4.5,0.2-5.8-2.8-4.7-9.5c0.1-0.5-0.3-0.9-0.8-1c-0.1,0-0.2,0-0.3,0c-1,0.3-2,0.3-3,0.3c-0.4,0-0.8,0.2-0.9,0.6
		c-1.7,5.6-5.6,10.7-10.9,10.9c-3.3,0.2-8.2-1.7-7.8-9.7c0.1-0.5-0.3-0.9-0.8-1c-0.1,0-0.2,0-0.3,0c-1.1,0.3-2.2,0.4-3.2,0.3
		c-0.4,0-0.8,0.2-0.9,0.6c-1.7,5.5-5.6,10.6-10.8,10.9c-3.3,0.2-8.2-1.7-7.8-9.6c0.1-0.5-0.3-0.9-0.8-1c-0.1,0-0.2,0-0.4,0
		c-1.1,0.3-2.2,0.4-3.2,0.3c-0.4,0-0.8,0.2-0.9,0.6c-1.7,5.5-5.6,10.6-10.8,10.9c-3,0.3-5.8-1.4-7-4.2c-0.2-0.4-0.6-0.7-1.1-0.5
		c-0.2,0.1-0.3,0.2-0.4,0.4c-2.1,2.8-4.5,5-7.1,5.1s-4.1-0.9-4.8-2.8c-0.2-0.5-0.7-0.7-1.1-0.6c-0.2,0-0.3,0.1-0.4,0.3
		c-1.8,2.1-3.9,3.7-6,3.8c-3.2,0.2-5.1-2.2-5.2-5.1c-0.2-3.4,1.3-7.4,2.9-11.7c0.2-0.5,0-1-0.5-1.2c-0.1,0-0.2-0.1-0.3-0.1
		c-1,0-2-0.1-3-0.3c-0.5-0.1-0.9,0.2-1,0.7c-1.7,6.2-4.2,12.1-7.4,17.7c-0.2,0.4-0.8,0.6-1.2,0.3c0,0-0.1,0-0.1-0.1l-1.9-1.4
		c-0.4-0.3-0.5-0.9-0.3-1.3c3.9-6.7,6.5-14,7.9-21.5c0.1-0.4,0.4-0.8,0.9-0.8l2.6-0.2c0.5,0,0.9,0.4,1,0.9c0,0.1,0,0.1,0,0.2v0.1
		c-0.1,0.5,0.3,1,0.8,1.1c2.6,0.3,5.3,0.4,7.9,0.2c0.5,0,0.9,0.4,0.9,0.9c0,0.1,0,0.3-0.1,0.4c-1.9,5-4.4,11.8-4.2,14.4
		c0.1,1.2,0.6,1.9,1.5,1.8c1.8-0.1,4.6-3.8,6.8-7.8c0-0.1,0.1-0.2,0.1-0.3c0.7-3.2,1.8-6.7,2.8-10.3l0.1-0.3
		c0.1-0.4,0.4-0.6,0.8-0.7l3.1-0.2c0.6,0,1,0.5,1,1c0,0.1,0,0.1,0,0.1c-0.2,0.5-0.3,1-0.4,1.5c-2.6,8.8-4.9,16.2-1.9,16
		c2-0.1,4.8-3.5,7.2-8.2c0-0.1,0.1-0.2,0.1-0.2c0.1-0.7,0.2-1.3,0.4-2c1.4-5.6,3-11.2,4.6-16.7c0.5-1.7,1-3.4,1.4-5.1
		c0.1-0.4,0.4-0.7,0.9-0.7l3.2-0.2c0.6,0,1,0.5,1,1c0,0.1,0,0.1,0,0.2c-1.3,3.9-2.6,8-3.8,12c-0.1,0.5,0.1,1,0.6,1.1
		c0.3,0.1,0.5,0,0.8-0.1c1.2-0.8,2.6-1.3,4-1.5c3.5-0.2,5.9,2.6,6.1,7v0.8c0,0.5,0.4,0.9,0.9,0.9c1.7,0.2,3.4-0.4,4.6-1.5
		c0.2-0.1,0.3-0.2,0.3-0.4c1.3-5,2.7-10,4.2-15c0.5-1.7,0.9-3.4,1.4-5.1c0.1-0.4,0.4-0.7,0.9-0.7l3.2-0.2c0.6,0,1,0.5,1,1
		c0,0.1,0,0.1,0,0.1c-1.3,3.9-2.6,8-3.8,12c-0.1,0.5,0.1,1,0.6,1.1c0.3,0.1,0.5,0,0.8-0.1c1.2-0.8,2.6-1.3,4-1.4
		c3.5-0.2,5.9,2.7,6.1,7V23c0,0.5,0.4,0.9,0.9,0.9c1.7,0.2,3.4-0.4,4.6-1.5c0.2-0.1,0.3-0.2,0.3-0.4c1.3-5,2.7-10,4.2-15
		c0.5-1.7,0.9-3.4,1.5-5.1c0.1-0.4,0.4-0.7,0.9-0.7L134,1c0.6,0,1,0.5,1,1c0,0.1,0,0.1,0,0.1c-1.3,3.9-2.6,8-3.8,12
		c-0.1,0.5,0.1,1,0.6,1.1c0.3,0.1,0.5,0,0.8-0.1c1.2-0.8,2.6-1.3,4-1.4c3.5-0.2,5.9,2.7,6.1,7v0.8c0,0.5,0.4,0.9,0.9,0.9
		c1.6,0.2,3.3-0.3,4.5-1.4c0.2-0.1,0.3-0.3,0.2-0.5c1.5-5.6,3.7-13.1,5.7-20.2c0.1-0.4,0.4-0.6,0.8-0.7l3.1-0.2c0.6,0,1,0.5,1,1
		c0,0.1,0,0.1,0,0.2c-2.9,9.6-5.2,17.9-6.5,22.8c-1.7,6.7-1.8,8.6,0.2,8.5c1.6-0.1,3.8-2.4,5.9-5.9c0.1-0.2,0.1-0.3,0.2-0.4
		c0.3-7,4.6-13.4,11-13.8c3.5-0.3,6.5,2.3,6.8,5.8c0,0.1,0,0.3,0,0.4c0.3,6.1-5.7,10-11.5,9.6c-0.5,0-0.9,0.3-1,0.8
		c0,0.2,0,0.3,0.1,0.5c0.9,1.7,2.6,2.7,5.5,2.6C171.7,31.9,174.7,29.4,176.5,27.3z M80.1,29c-1.4,5.6,0.3,7.7,2.5,7.6
		c3.6-0.2,7-6.8,6.8-11.8c-0.1-2.2-1.4-3.3-2.9-3.2C83.9,21.8,81.2,24.6,80.1,29z M104,27.6c-1.4,5.5,0.3,7.7,2.5,7.6l0,0
		c3.6-0.2,7-6.8,6.7-11.8c-0.1-2.2-1.4-3.3-2.9-3.2C107.9,20.4,105.2,23.2,104,27.6L104,27.6z M128,26.3c-1.4,5.6,0.3,7.7,2.5,7.6
		l0,0c3.6-0.2,7-6.7,6.8-11.8c-0.1-2.2-1.4-3.3-2.9-3.2C131.8,19,129.2,21.8,128,26.3L128,26.3z M171.4,19c0.1-1.2-0.8-2.3-2-2.4
		c-0.1,0-0.3,0-0.4,0l0,0c-2.8,0.2-5,3.2-5.8,7c-0.1,0.5,0.3,1,0.9,1.1c0,0,0,0,0.1,0C167.8,24.7,171.4,22.2,171.4,19z M37.9,21.8
		C37.6,10.5,30.2,3,19.4,3.5c-5.1,0.2-9.9,2-14,5C5,8.8,4.9,9.3,5.1,9.7l1.7,2.7c0.2,0.4,0.8,0.6,1.2,0.4c0.1,0,0.1-0.1,0.2-0.1
		c3.2-2.6,7.1-4.1,11.2-4.3C26.8,8,32.3,12.8,32.6,22c0.4,10.7-6.8,22.9-18.3,23.6H13c-0.5,0-0.9-0.4-0.9-1c0-0.1,0-0.2,0-0.2
		c2.2-9,4.8-18.6,7.4-27.6c0.2-0.5-0.1-1-0.6-1.2c-0.1,0-0.2-0.1-0.4,0l-3.2,0.3c-0.4,0-0.7,0.3-0.9,0.7C12,25.3,9.4,34.9,7.2,43.8
		c-0.1,0.5-0.6,0.8-1.1,0.7c0,0,0,0,0,0c-1.1-0.4-2.2-0.8-3.2-1.5c-0.4-0.2-1-0.1-1.2,0.3c0,0,0,0.1,0,0.1l-1.4,3
		c-0.2,0.4-0.1,0.9,0.3,1.1c0,0,0.1,0,0.1,0c3.2,1.9,8.3,2.9,13.3,2.7C30.2,49.4,38.4,34.2,37.9,21.8L37.9,21.8z M70.3,7.9
		c-2,0.1-3.8,2.4-3.7,4.7c0,1.4,1,2.5,2.4,2.6c0.1,0,0.2,0,0.2,0c2-0.1,3.9-2.5,3.8-4.8c0-1.4-1.2-2.5-2.6-2.5
		C70.4,7.9,70.4,7.9,70.3,7.9z"/>
</g>
</svg>
