<?xml version="1.0" encoding="utf-8"?>
<!-- Generator: Adobe Illustrator 25.0.0, SVG Export Plug-In . SVG Version: 6.00 Build 0)  -->
<svg version="1.1" id="Layer_1" xmlns="http://www.w3.org/2000/svg" xmlns:xlink="http://www.w3.org/1999/xlink" x="0px" y="0px"
	 viewBox="0 0 34.85 31.73" style="enable-background:new 0 0 34.85 31.73;" xml:space="preserve">
<style type="text/css">
	.st0{fill:url(#SVGID_1_);}
	.st1{fill:#DA22FF;}
	.st2{fill:#9733EE;}
</style>
<g>
	<linearGradient id="SVGID_1_" gradientUnits="userSpaceOnUse" x1="0" y1="15.8667" x2="34.8463" y2="15.8667">
		<stop  offset="0" style="stop-color:#FFFFFF"/>
		<stop  offset="0" style="stop-color:#DA22FF"/>
		<stop  offset="1" style="stop-color:#9733EE"/>
	</linearGradient>
	<path class="st0" d="M16.02,0.32c2.29,0.77-4.42,4.56-0.23,7.1c2.36,1.43,7.51-5.04,10.09-6.49c2.2-1.22,6.06-1.47,8.01,2.79
		c2.47,5.4,0.32,19.44-8.6,25.09c-9,5.67-20.35,2.79-24.27-6.03C-3.53,12.5,8.1-2.38,16.02,0.32L16.02,0.32z M18.76,14.95
		c1.66,3.72,10.66-1.13,8.6-6.35C26.02,5.22,17.2,11.44,18.76,14.95z"/>
</g>
</svg>
