<?xml version="1.0" encoding="utf-8"?>
<!-- Generator: Adobe Illustrator 25.0.0, SVG Export Plug-In . SVG Version: 6.00 Build 0)  -->
<svg version="1.1" id="Layer_1" xmlns="http://www.w3.org/2000/svg" xmlns:xlink="http://www.w3.org/1999/xlink" x="0px" y="0px"
	 viewBox="0 0 800 800" style="enable-background:new 0 0 800 800;" xml:space="preserve">
<style type="text/css">
	.st0{fill:#CA0003;}
</style>
<path class="st0" d="M270.2,608.2C176.6,536.1,66.7,451.4,66.7,304.6C66.7,142.5,250,27.5,400,183.4l66.7,66.6
	c9.8,9.8,25.6,9.8,35.4,0c9.8-9.8,9.8-25.6,0-35.4l-64.4-64.4c141.3-103.5,295.7,5.6,295.7,154.3c0,146.8-109.9,231.5-203.5,303.7
	c-9.7,7.5-19.3,14.9-28.5,22.1c-34.6,27.3-67.9,53-101.3,53s-66.7-25.7-101.3-53C289.5,623.1,279.9,615.7,270.2,608.2z"/>
</svg>
