<?xml version="1.0" encoding="utf-8"?>
<!-- Generator: Adobe Illustrator 25.0.0, SVG Export Plug-In . SVG Version: 6.00 Build 0)  -->
<svg version="1.1" id="Layer_1" xmlns="http://www.w3.org/2000/svg" xmlns:xlink="http://www.w3.org/1999/xlink" x="0px" y="0px"
	 viewBox="0 0 207.41 31.73" style="enable-background:new 0 0 207.41 31.73;" xml:space="preserve">
<style type="text/css">
	.st0{fill:url(#SVGID_1_);}
	.st1{fill:#DA22FF;}
	.st2{fill:#9733EE;}
</style>
<g>
	<linearGradient id="SVGID_1_" gradientUnits="userSpaceOnUse" x1="-9.094947e-13" y1="15.8618" x2="34.8463" y2="15.8618">
		<stop  offset="0" style="stop-color:#FFFFFF"/>
		<stop  offset="0" style="stop-color:#DA22FF"/>
		<stop  offset="1" style="stop-color:#9733EE"/>
	</linearGradient>
	<path class="st0" d="M16.02,0.32c2.29,0.77-4.42,4.56-0.23,7.1c2.36,1.43,7.51-5.04,10.09-6.49c2.2-1.22,6.06-1.47,8.01,2.79
		c2.47,5.4,0.32,19.44-8.6,25.09c-9,5.67-20.35,2.79-24.27-6.03C-3.53,12.5,8.1-2.38,16.02,0.32L16.02,0.32z M18.76,14.95
		c1.66,3.72,10.66-1.13,8.6-6.35C26.02,5.22,17.2,11.43,18.76,14.95z"/>
</g>
<path d="M38.93,3.37h13.35c6.25,0,10.67,4.02,10.67,9.74s-4.42,9.74-10.67,9.74H46.8v8.4h-7.87V3.37z M51.63,15.7
	c1.87,0,3.21-1.1,3.21-2.6s-1.34-2.6-3.21-2.6H46.8v5.19H51.63z"/>
<path d="M65.83,3.98c0-2.11,1.79-3.98,4.06-3.98c2.19,0,3.98,1.87,3.98,3.98c0,2.19-1.79,4.06-3.98,4.06
	C67.62,8.03,65.83,6.17,65.83,3.98z M65.91,10.27h7.83v20.98h-7.83V10.27z"/>
<path d="M77.11,20.73c0-5.96,5.44-10.95,11.89-10.95c3.73,0,6.69,1.54,8.72,3.89l-5.15,4.22c-0.81-0.93-2.31-1.62-3.65-1.62
	c-2.35,0-4.34,2.03-4.34,4.42c0,2.47,1.99,4.54,4.38,4.54c1.34,0,2.88-0.69,3.73-1.66l5.15,4.14c-2.11,2.43-5.07,4.02-8.97,4.02
	C82.51,31.73,77.11,26.7,77.11,20.73z"/>
<path d="M98.58,10.27h8.03l4.75,12.01l4.63-12.01h8.03l-9.05,20.98h-7.22L98.58,10.27z"/>
<path d="M139.81,24.14l4.3,4.34c-1.87,1.91-5.44,3.25-8.64,3.25c-6.69,0-11.4-4.58-11.4-11.04c0-6.41,4.58-10.91,11.08-10.91
	c6.74,0,10.71,4.75,10.71,12.82H131c0.61,1.99,2.15,3.29,4.14,3.29C136.72,25.89,138.43,25.24,139.81,24.14z M131.12,18.5h7.63
	c-0.57-1.74-1.91-2.88-3.61-2.88C133.27,15.62,131.81,16.76,131.12,18.5z"/>
<path d="M163.38,9.78v6.49c-4.14,0-6.57,2.27-6.57,6.09v8.89h-7.83V10.27h7.83V14C158.19,11.4,160.54,9.78,163.38,9.78z"/>
<path d="M164.44,28.56l2.92-4.75c2.03,1.42,5.03,2.47,7.26,2.47c1.46,0,1.99-0.37,1.99-1.05c0-0.73-1.22-1.14-3.17-1.54
	c-3.81-0.81-8.07-1.74-8.07-6.69c0-4.06,3.29-7.22,8.76-7.22c3.25,0,6.37,1.18,8.76,2.76l-2.64,4.79c-1.74-1.14-4.14-2.23-6.13-2.23
	c-1.1,0-1.83,0.57-1.83,1.18c0,0.69,0.93,0.81,3.04,1.3c3.81,0.85,8.2,2.11,8.2,7.06c0,4.34-3.45,7.1-9.13,7.1
	C170.77,31.73,167,30.55,164.44,28.56z"/>
<path d="M201.37,24.14l4.3,4.34c-1.87,1.91-5.44,3.25-8.64,3.25c-6.69,0-11.4-4.58-11.4-11.04c0-6.41,4.58-10.91,11.08-10.91
	c6.74,0,10.71,4.75,10.71,12.82h-14.85c0.61,1.99,2.15,3.29,4.14,3.29C198.28,25.89,199.99,25.24,201.37,24.14z M192.68,18.5h7.63
	c-0.57-1.74-1.91-2.88-3.61-2.88C194.83,15.62,193.37,16.76,192.68,18.5z"/>
</svg>
