<?xml version="1.0" encoding="utf-8"?>
<!-- Generator: Adobe Illustrator 25.0.0, SVG Export Plug-In . SVG Version: 6.00 Build 0)  -->
<svg version="1.1" xmlns="http://www.w3.org/2000/svg" xmlns:xlink="http://www.w3.org/1999/xlink" x="0px" y="0px"
	 viewBox="0 0 201.7 50" style="enable-background:new 0 0 201.7 50;" xml:space="preserve">
<style type="text/css">
	.st0{display:none;}
	.st1{display:inline;fill:#544949;stroke:#000000;stroke-miterlimit:10;}
	.st2{fill:#FFFFFF;}
	.st3{fill:none;}
</style>
<g id="Layer_2" class="st0">
	<rect x="-189.1" y="-125" class="st1" width="595" height="246"/>
</g>
<g id="Layer_1">
	<path id="path12" class="st2" d="M79.4,18.1h6.4v20.1h-6.4V18.1z"/>
	<rect x="-0.2" y="0.3" class="st3" width="202.1" height="49.4"/>
	<g id="g22">
		<path id="path24" class="st2" d="M87.1,18.1h6.1v2.7h0.1c1.3-2.1,3.7-3.4,6.2-3.3c4.4,0,7,3.1,7,7.6v13h-6.4V26.4
			c0-2.1-1.1-3.5-3.1-3.5s-3.5,1.8-3.5,4.2v11.1h-6.4L87.1,18.1z"/>
	</g>
	<g id="g26">
		<path id="path28" class="st2" d="M86.4,12.8c0-2.1-1.7-3.8-3.8-3.8c-2.1,0-3.8,1.7-3.8,3.8c0,2.1,1.7,3.8,3.8,3.8c0,0,0,0,0,0
			C84.7,16.6,86.4,14.9,86.4,12.8C86.4,12.8,86.4,12.8,86.4,12.8"/>
	</g>
	<g id="g30">
		<path id="path32" class="st2" d="M151.5,17.8c-0.2,0-0.4,0-0.6,0c-2.4,0-4.1,1.1-5.5,3.5h-0.1v-3.2h-6.1v20.1h6.4v-9
			c0-4.2,2.3-6.1,6-5.8L151.5,17.8L151.5,17.8z"/>
	</g>
	<g id="g34">
		<path id="path36" class="st2" d="M182.8,25.5c-2.5-0.5-4.8-0.7-4.8-2.1c0-1.2,1.2-1.8,2.8-1.8c1.8,0,3,0.5,3.2,2.4h5.9
			c-0.3-4-3.4-6.4-9-6.4c-4.7,0-8.7,2.2-8.7,6.4c0,4.7,3.7,5.6,7.2,6.2c2.7,0.5,5.1,0.7,5.1,2.5c0,1.3-1.2,2-3.1,2s-3.2-0.8-3.6-2.5
			h-6.1c0.4,4.1,4.1,6.6,9.7,6.6c5.2,0,9.1-2.3,9.1-6.7C190.5,27,186.4,26.1,182.8,25.5"/>
	</g>
	<g id="g38">
		<path id="path40" class="st2" d="M161.4,22.1c2.1,0,3.5,1.5,3.8,3.9h-7.9C157.7,23.6,158.9,22.1,161.4,22.1 M161.7,34.2
			c-2.6,0-4.1-1.7-4.5-4.4h14.4c0-4.1-1.1-7.6-3.5-9.8c-1.9-1.7-4.3-2.6-6.9-2.5c-6.1,0-10.3,4.6-10.3,10.6s4.1,10.7,10.7,10.7
			c2.2,0.1,4.4-0.6,6.2-1.8c1.7-1.1,2.9-2.8,3.4-4.7H165C164.5,33.5,163.1,34.3,161.7,34.2"/>
	</g>
	<g id="g42">
		<path id="path44" class="st2" d="M201.7,33.4c-0.3,0-0.7,0-1.1,0c-1.4,0-2.2-0.4-2.2-2v-9.3h3.3v-4h-3.3v-6.3h-6.2v6.3h-2v4h2
			v10.8c0,4.3,2.7,5.5,6.4,5.5c1,0,2.1-0.1,3.1-0.2V33.4z"/>
	</g>
	<g id="g46">
		<path id="path48" class="st2" d="M118,33.5h-0.8c-1.4,0-2.2-0.4-2.2-2v-9.4h3v-4h-3v-6.3h-6.2v6.3h-2.1v4h2.1v10.8
			c0,4.3,2.7,5.5,6.4,5.5c1,0,1.9-0.1,2.9-0.2V33.5z"/>
	</g>
	<g id="g50">
		<path id="path52" class="st2" d="M131.9,26c-0.2-2.4-1.7-3.9-3.8-3.9c-2.4,0-3.7,1.5-4.1,3.9H131.9z M117.7,28.1
			c0-6,4.2-10.6,10.3-10.6c2.5-0.1,5,0.8,6.9,2.5c2.4,2.2,3.6,5.7,3.5,9.8h-14.4c0.4,2.7,1.9,4.4,4.5,4.4c1.4,0.1,2.8-0.7,3.3-2h6.2
			c-0.5,1.9-1.7,3.6-3.4,4.7c-1.8,1.3-4,1.9-6.3,1.8C121.7,38.7,117.7,34.1,117.7,28.1"/>
	</g>
	<g id="g54">
		<path id="path56" class="st2" d="M68.3,23.3c2.5,0,3.9-1.5,3.9-3.7S70.8,16,68.3,16h-4.9v7.3H68.3z M57,10.1h11.1
			c3.4,0,5.9,0.9,7.6,2.6c1.9,1.8,2.9,4.3,2.8,6.9c0,5.4-3.7,9.2-9.5,9.2h-5.6v9.4H57L57,10.1z"/>
	</g>
	<g id="g62">
		<path id="path64" class="st2" d="M24.1,0.9C10.8,0.9,0,11.7,0,25c0,9.9,6.1,18.9,15.3,22.5c-0.3-2.3-0.3-4.6,0.1-6.9
			c0.4-1.9,2.8-12,2.8-12c-0.5-1.1-0.7-2.3-0.7-3.6c0-3.4,1.9-5.9,4.4-5.9c2,0,3,1.5,3,3.4c0,2.1-1.3,5.1-2,8
			c-0.5,1.9,0.6,3.8,2.5,4.3c0.3,0.1,0.7,0.1,1.1,0.1c4.3,0,7.6-4.5,7.6-11.1C34,18,29.9,14,23.9,14c-5.8-0.2-10.6,4.2-10.9,10
			c0,0.2,0,0.3,0,0.5c0,2,0.6,3.9,1.8,5.5c0.2,0.2,0.2,0.4,0.2,0.7c-0.2,0.8-0.6,2.4-0.7,2.7S14,34,13.6,33.7
			c-3-1.4-4.9-5.8-4.9-9.3c0-7.6,5.5-14.6,15.9-14.6c8.4,0,14.8,6,14.8,13.9c0,8.3-5.2,15-12.5,15c-2.4,0-4.7-1.3-5.5-2.8
			c0,0-1.2,4.6-1.5,5.7c-0.7,2.2-1.7,4.4-3,6.3c12.7,3.9,26.2-3.2,30.2-15.9C51,19.4,43.9,5.9,31.2,2C28.9,1.3,26.5,0.9,24.1,0.9"/>
	</g>
</g>
</svg>
